<svg id="Layer_1" data-name="Layer 1" xmlns="http://www.w3.org/2000/svg" viewBox="0 0 425.2 62.36"><defs><style>.cls-1{fill:#60f;}.cls-2{fill:#fff;}</style></defs><title>notus_explorer_blue copy 2</title><path class="cls-1" d="M54.63,8.35h0A14.36,14.36,0,0,1,69,22.68l.06,32.55L40.25,31.74l0-9.07A14.36,14.36,0,0,1,54.63,8.35m-43.07,0L40.25,31.74l0,22.27-28.65.07V8.35M54.63,2.83A19.92,19.92,0,0,0,34.91,20.27L15,4.07,6,8.35V54.08l5.53,5.45H40.23l5.5-5.5,0-10.7L65.58,59.5l9-4.28-.07-32.55A19.92,19.92,0,0,0,54.68,2.83Z"/><path class="cls-2" d="M93.74,20.16H85.91v22h7.83c4.9,0,10.18-3.47,10.17-11S98.63,20.16,93.74,20.16Zm6.59,11a9.39,9.39,0,0,1-1.51,5.35,5.19,5.19,0,0,1-4.44,2.39H89.5V23.44h4.88C98.47,23.44,100.33,27.46,100.33,31.18Z"/><path class="cls-2" d="M122,19.85c-4.57,0-9.48,2.58-9.48,8.26v6.15c0,5.67,4.91,8.26,9.48,8.26s9.48-2.59,9.48-8.26V28.11C131.45,22.43,126.54,19.85,122,19.85Zm-5.9,8.87c0-3.85,3.06-5.6,5.9-5.6s5.89,1.75,5.89,5.6v4.92c0,3.85-3,5.61-5.89,5.61s-5.9-1.76-5.9-5.61Z"/><path class="cls-2" d="M142.44,23.62a11.89,11.89,0,0,0-2.54,7.56c0,7.57,5.28,11,10.18,11h6.28V38.92h-6.9c-4.1,0-6-4-6-7.74A9.51,9.51,0,0,1,145,25.83a5.27,5.27,0,0,1,4.46-2.39h6.9V20.16h-6.28A9.52,9.52,0,0,0,142.44,23.62Z"/><path class="cls-2" d="M178,34.87c0,3-2.42,4.36-4.66,4.36s-4.67-1.36-4.67-4.36V20.16h-3.58v14.1c0,5.67,4.27,8.26,8.25,8.26s8.25-2.59,8.25-8.26V20.16H178Z"/><path class="cls-2" d="M213.55,19.84h0a4.86,4.86,0,0,0-4.91,3.75l-2.18,9.77-2.18-9.77a4.9,4.9,0,0,0-4.94-3.75h0a4.87,4.87,0,0,0-4.91,3.75L190.26,42.2h4l3.33-17.12c.24-1.19.92-2,1.74-2s1.51.77,1.75,2L204.54,42l0,.2h3.71l3.55-17.11c.25-1.2.94-2,1.77-2h0c.81,0,1.48.78,1.71,2l3.33,17.12h4l-4.1-18.61A4.91,4.91,0,0,0,213.55,19.84Z"/><polygon class="cls-2" points="231.29 42.2 245.95 42.2 245.95 38.92 234.88 38.92 234.88 33.13 245.03 33.13 245.03 29.85 234.88 29.85 234.88 23.44 245.95 23.44 245.95 20.16 231.29 20.16 231.29 42.2"/><path class="cls-2" d="M274.62,37.36a1.76,1.76,0,0,1-1.8,1.87c-1,0-1.69-1.09-2.07-2L265,23.61a5.64,5.64,0,0,0-5.28-3.75A4.81,4.81,0,0,0,254.69,25V42.2h3.59V25a1.77,1.77,0,0,1,1.8-1.89c.8,0,1.54.71,2.07,2l5.69,13.66a5.64,5.64,0,0,0,5.28,3.69,4.86,4.86,0,0,0,5.09-5.12V20.16h-3.59Z"/><polygon class="cls-2" points="286.98 23.44 293.6 23.44 293.6 42.2 297.18 42.2 297.18 23.44 303.8 23.44 303.8 20.16 286.98 20.16 286.98 23.44"/><path class="cls-2" d="M317.06,19.85h0a5.11,5.11,0,0,0-4.92,3.72l-5.7,18.63h3.77l1.94-6.36H322l1.93,6.36h3.77L322,23.57A5.11,5.11,0,0,0,317.06,19.85Zm4,12.83h-7.92l2.39-7.88c.31-1,.91-1.66,1.57-1.66h0c.65,0,1.24.63,1.54,1.66Z"/><polygon class="cls-2" points="330.38 23.44 336.99 23.44 336.99 42.2 340.58 42.2 340.58 23.44 347.19 23.44 347.19 20.16 330.38 20.16 330.38 23.44"/><rect class="cls-2" x="355.9" y="20.16" width="3.59" height="22.04"/><path class="cls-2" d="M377.53,19.85c-4.56,0-9.48,2.58-9.48,8.26v6.15c0,5.67,4.92,8.26,9.48,8.26S387,39.93,387,34.26V28.11C387,22.43,382.1,19.85,377.53,19.85Zm-5.89,8.87c0-3.85,3.06-5.6,5.89-5.6s5.9,1.75,5.9,5.6v4.92c0,3.85-3.06,5.61-5.9,5.61s-5.89-1.76-5.89-5.61Z"/><path class="cls-2" d="M415.57,20.16v17.2a1.76,1.76,0,0,1-1.81,1.87c-1,0-1.69-1.09-2.07-2L406,23.61a5.62,5.62,0,0,0-5.28-3.75A4.81,4.81,0,0,0,395.64,25V42.2h3.59V25a1.76,1.76,0,0,1,1.8-1.89c.8,0,1.54.71,2.07,2l5.69,13.66a5.63,5.63,0,0,0,5.28,3.69,4.86,4.86,0,0,0,5.08-5.12V20.16Z"/></svg>